<svg xmlns="http://www.w3.org/2000/svg" viewBox="0 0 66 82.5" x="0px" y="0px"><title>Artboard 28</title><g><path d="M53,31h6a1,1,0,0,0,1-1V12a1,1,0,0,0-1-1H53a1,1,0,0,0-1,1V30A1,1,0,0,0,53,31Zm1-18h4V29H54Z"/><path d="M43,31h6a1,1,0,0,0,1-1V15a1,1,0,0,0-1-1H43a1,1,0,0,0-1,1V30A1,1,0,0,0,43,31Zm1-15h4V29H44Z"/><path d="M33,31h6a1,1,0,0,0,1-1V18a1,1,0,0,0-1-1H33a1,1,0,0,0-1,1V30A1,1,0,0,0,33,31Zm1-12h4V29H34Z"/><path d="M7,37H59a1,1,0,0,0,0-2H7a1,1,0,0,0,0,2Z"/><path d="M61,1H5A4,4,0,0,0,1,5V47a4,4,0,0,0,4,4H23.66l-2.4,8H19a3,3,0,0,0,0,6H47a3,3,0,0,0,0-6H44.74l-2.4-8H61a4,4,0,0,0,4-4V5A4,4,0,0,0,61,1ZM5,3H61a2,2,0,0,1,2,2V41H3V5A2,2,0,0,1,5,3ZM45,61h2a1,1,0,0,1,0,2H19a1,1,0,0,1,0-2H45Zm-2.34-2H23.34l2.4-8H40.26ZM61,49H5a2,2,0,0,1-2-2V43H63v4A2,2,0,0,1,61,49Z"/><path d="M16,31a9,9,0,0,0,9-9,1,1,0,0,0-1-1H17V14a1,1,0,0,0-1-1,9,9,0,0,0,0,18ZM15,15.07V22a1,1,0,0,0,1,1h6.93A7,7,0,1,1,15,15.07Z"/><path d="M20,19h8a1,1,0,0,0,1-1,9,9,0,0,0-9-9,1,1,0,0,0-1,1v8A1,1,0,0,0,20,19Zm1-7.93A7,7,0,0,1,26.93,17H21Z"/></g><text x="0" y="81" fill="#000000" font-size="5px" font-weight="bold" font-family="'Helvetica Neue', Helvetica, Arial-Unicode, Arial, Sans-serif">Created by Armin Smith</text><text x="0" y="86" fill="#000000" font-size="5px" font-weight="bold" font-family="'Helvetica Neue', Helvetica, Arial-Unicode, Arial, Sans-serif">from the Noun Project</text></svg>