<svg xmlns="http://www.w3.org/2000/svg" xmlns:xlink="http://www.w3.org/1999/xlink" version="1.1" x="0px" y="0px" viewBox="0 0 100 125" enable-background="new 0 0 100 100" xml:space="preserve"><g><path d="M29.576,8.08c-0.552,0-1,0.448-1,1v80.533c0,0.552,0.448,1,1,1h20.57c0.552,0,1-0.448,1-1V9.08c0-0.552-0.448-1-1-1H29.576   z M49.146,88.613h-18.57V79.6h6.374c0.552,0,1-0.448,1-1s-0.448-1-1-1h-6.374v-7.751h6.374c0.552,0,1-0.448,1-1s-0.448-1-1-1   h-6.374v-7.751h6.374c0.552,0,1-0.448,1-1s-0.448-1-1-1h-6.374v-7.751h6.374c0.552,0,1-0.448,1-1s-0.448-1-1-1h-6.374v-7.751h6.374   c0.552,0,1-0.448,1-1s-0.448-1-1-1h-6.374v-7.751h6.374c0.552,0,1-0.448,1-1s-0.448-1-1-1h-6.374v-7.751h6.374c0.552,0,1-0.448,1-1   s-0.448-1-1-1h-6.374V10.08h18.57V88.613z"/><path d="M71.424,17.276v-3.784c0-0.552-0.448-1-1-1h-8.15c-0.552,0-1,0.448-1,1v3.784v65.348c0,0.01,0.005,0.018,0.005,0.027   c0.002,0.065,0.024,0.129,0.04,0.194c0.015,0.066,0.023,0.133,0.051,0.193c0.004,0.009,0.002,0.018,0.007,0.027l4.075,8.296   c0.168,0.342,0.516,0.559,0.897,0.559s0.729-0.217,0.897-0.559l4.075-8.296c0.004-0.009,0.003-0.018,0.007-0.027   c0.028-0.06,0.036-0.127,0.051-0.193c0.015-0.065,0.038-0.128,0.04-0.194c0-0.01,0.005-0.018,0.005-0.027V17.276z M63.274,81.624   V18.276h2.075v63.348H63.274z M67.349,18.276h2.075v63.348h-2.075V18.276z M63.274,14.492h6.15v1.784h-6.15V14.492z M66.349,88.652   l-2.47-5.028h4.939L66.349,88.652z"/></g><text x="0" y="115" fill="#000000" font-size="5px" font-weight="bold" font-family="'Helvetica Neue', Helvetica, Arial-Unicode, Arial, Sans-serif">Created by Rudez Studio</text><text x="0" y="120" fill="#000000" font-size="5px" font-weight="bold" font-family="'Helvetica Neue', Helvetica, Arial-Unicode, Arial, Sans-serif">from the Noun Project</text></svg>