<svg xmlns="http://www.w3.org/2000/svg" xmlns:xlink="http://www.w3.org/1999/xlink" version="1.1" x="0px" y="0px" viewBox="0 0 100 125" enable-background="new 0 0 100 100" xml:space="preserve"><path d="M84.709,41.01c0-0.552-0.446-1-1-1H30.256l52.81-8.307c0.545-0.086,0.918-0.598,0.832-1.143l-1.109-7.062  c-0.266-1.682-1.188-3.156-2.598-4.149c-1.402-0.988-3.119-1.38-4.832-1.113l-54.539,8.58c-1.255,0.197-2.368,0.738-3.263,1.501  c-0.009,0.006-0.02,0.007-0.028,0.014c-0.011,0.008-0.015,0.021-0.025,0.03c-1.606,1.397-2.486,3.529-2.138,5.742l1.093,6.947  v34.442c0,3.503,2.925,6.354,6.521,6.354h55.208c3.596,0,6.521-2.851,6.521-6.354V41.142c0-0.023-0.012-0.042-0.013-0.065  C84.697,41.053,84.709,41.034,84.709,41.01z M76.599,42.01l-5.791,9.593h-6.369l5.793-9.593H76.599z M67.896,42.01l-5.793,9.593  h-8.705l5.793-9.593H67.896z M56.853,42.01l-5.791,9.593h-8.706l5.792-9.593H56.853z M45.812,42.01l-5.792,9.593h-8.706l5.792-9.593  H45.812z M28.978,51.604h-8.706l5.792-9.593h8.706L28.978,51.604z M18.458,50.736v-8.727h5.269L18.458,50.736z M75.668,20.211  c1.198-0.186,2.396,0.085,3.369,0.772c0.964,0.68,1.595,1.683,1.772,2.825l0.955,6.074l-2.718,0.428l-7.44-9.46L75.668,20.211z   M69.343,21.208l7.44,9.459l-8.181,1.287l-7.44-9.459L69.343,21.208z M58.897,22.851l7.439,9.46l-8.181,1.287l-7.441-9.459  L58.897,22.851z M48.451,24.494l7.44,9.459L47.71,35.24l-7.44-9.459L48.451,24.494z M38.005,26.138l7.44,9.459l-8.181,1.287  l-7.44-9.459L38.005,26.138z M21.13,28.792l6.43-1.012L35,37.239l-8.181,1.287l-7.229-9.191C20.056,29.075,20.57,28.88,21.13,28.792  z M18.097,30.671l6.458,8.211l-6.258,0.984l-0.956-6.074C17.163,32.659,17.469,31.559,18.097,30.671z M82.709,75.492  c0,2.4-2.028,4.354-4.521,4.354H22.979c-2.493,0-4.521-1.953-4.521-4.354V53.604h64.25L82.709,75.492L82.709,75.492z M82.709,51.604  h-0.728l0.728-1.205V51.604z M82.709,46.526l-3.063,5.077h-6.502l5.793-9.594h3.772V46.526z"/></svg>