<svg xmlns="http://www.w3.org/2000/svg" xmlns:xlink="http://www.w3.org/1999/xlink" version="1.1" x="0px" y="0px" viewBox="0 0 100 125"><path d="M649,1200 l-498,0 c-51,0,-51,0,-51,-51 l0,-196 c0,-198,97,-313,211,-397 c19,-14,39,-23,39,-47 l0,-360 c0,-38,-13,-51,-51,-51 l-120,0 c-47,0,-47,0,-47,-48 c0,-50,0,-50,47,-50 l443,0 c47,0,47,0,47,50 c0,48,0,48,-47,48 l-121,0 c-38,0,-51,13,-51,51 l0,360 c0,24,19,35,39,47 c121,73,211,200,211,397 l0,196 c0,51,0,51,-51,51 Z M1161,1200 c-40,0,-40,0,-40,-57 l0,-303 c0,-64,-80,-64,-80,0 l0,303 c0,57,0,57,-41,57 c-41,0,-41,0,-41,-57 l0,-303 c0,-64,-81,-64,-81,0 l0,303 c0,57,0,57,-38,57 c-41,0,-41,0,-41,-57 l0,-327 c0,-158,151,-189,151,-291 c0,-172,-50,-263,-50,-405 c0,-80,50,-120,101,-120 c48,0,98,40,98,120 c1,142,-49,233,-48,405 c0,102,148,133,148,291 l0,327 c0,57,0,57,-38,57 Z M1161,1200 " fill="#000000" stroke="none" stroke-dasharray="none" stroke-linecap="inherit" stroke-linejoin="inherit" stroke-width="1" transform="matrix(0.05,0.0,0.0,-0.05,20.0,80.0)"/><text x="0" y="115" fill="#000000" font-size="5px" font-weight="bold" font-family="'Helvetica Neue', Helvetica, Arial-Unicode, Arial, Sans-serif">Created by Wolf Böse</text><text x="0" y="120" fill="#000000" font-size="5px" font-weight="bold" font-family="'Helvetica Neue', Helvetica, Arial-Unicode, Arial, Sans-serif">from the Noun Project</text></svg>