<svg xmlns:dc="http://purl.org/dc/elements/1.1/" xmlns:cc="http://creativecommons.org/ns#" xmlns:rdf="http://www.w3.org/1999/02/22-rdf-syntax-ns#" xmlns:svg="http://www.w3.org/2000/svg" xmlns="http://www.w3.org/2000/svg" xmlns:sodipodi="http://sodipodi.sourceforge.net/DTD/sodipodi-0.dtd" xmlns:inkscape="http://www.inkscape.org/namespaces/inkscape" version="1.1" x="0px" y="0px" viewBox="0 0 100 125"><g transform="translate(0,-952.36218)"><path style="text-indent:0;text-transform:none;direction:ltr;block-progression:tb;baseline-shift:baseline;color:#000000;enable-background:accumulate;" d="m 35.000007,957.61336 c -13.3098,7.76478 -22,22.10588 -22,36.74944 0,6.9577 1.8782,13.7626 5.5312,20.156 7.5688,13.2466 21.4138,20.208 35.4688,20.8122 l 0,8.0313 -10,0 c -1.1046,0 -2,0.8953 -2,1.9999 0,1.1046 0.8954,2 2,2 l 24,0 c 1.1045,0 2,-0.8954 2,-2 0,-1.1046 -0.8956,-1.9837 -2,-1.9999 l -10,0 0,-8.0625 c 5.9988,-0.3164 12.5349,-2.0304 18,-5.2187 0.903,-0.5262 1.2483,-1.8243 0.7263,-2.7296 -0.5221,-0.9054 -1.8185,-1.2569 -2.7263,-0.739 -5.3303,3.1096 -12.2049,4.7499 -18,4.7499 -13.4771,0 -26.8488,-6.3278 -34,-18.8435 -3.3418,-5.8487 -5,-11.9151 -5,-18.1561 0,-13.04647 7.8942,-26.21837 20,-33.28074 0.7988,-0.43463 1.2211,-1.46066 0.9598,-2.33168 -0.6054,-1.31935 -1.8654,-1.69807 -2.9598,-1.13702 z m 20.0937,4.90618 c -0.773,-6.2e-4 -1.5437,0.008 -2.3125,0.0625 -10.2504,0.7278 -19.9845,6.3531 -25.5,15.90602 -8.8247,15.28474 -3.5661,34.89384 11.7188,43.71814 15.2848,8.8247 34.894,3.566 43.7187,-11.7185 8.824699,-15.2848 3.5661,-34.89365 -11.7187,-43.71822 -5.0154,-2.89558 -10.4949,-4.24556 -15.9063,-4.24994 z m -0.031,3.96869 c 3.8337,0.007 7.7008,0.81918 11.375,2.46872 l -6.4688,3.93744 c -3.0606,-2.56944 -6.0365,-4.71848 -9.4062,-6.03116 1.5473,-0.28746 3.0408,-0.35199 4.5,-0.375 z m -4.6875,4.62494 c 1.9328,0.91572 3.9756,2.26437 6,3.96869 l -7.2188,4.37494 -5.3437,-9.90611 c 2.3792,0.0294 4.8155,0.74959 6.5625,1.56248 z m 20.0625,0.0625 c 2.9096,1.9214 5.3775,4.27888 7.3125,6.96865 l -9.125,5.62492 c -1.5951,-2.8786 -3.8058,-5.77472 -5.7813,-7.96864 z m -30.2813,0.0312 5.5625,10.3436 -6.9687,4.24994 c -0.1426,-0.76838 -0.2819,-1.54459 -0.375,-2.28122 -0.7212,-5.70626 0.2128,-10.27975 1.7812,-12.31232 z m -5.8437,4.40618 c -0.3587,2.53227 -0.2906,5.365 0.094,8.40613 0.1637,1.29488 0.4224,2.64136 0.7188,3.99995 l -8.0938,4.90617 c 0.2387,-4.23885 1.4472,-8.50298 3.7188,-12.43732 1.1148,-1.78224 2.3535,-3.53476 3.5622,-4.87493 z m 25.0625,2.28122 c 2.4012,2.74274 4.3011,5.14497 5.8437,7.96864 l -9.4687,5.81239 -4.6875,-8.7186 z m 20.4687,3.6562 c 1.6122,3.09634 2.6239,6.47535 3,9.93733 l -8.6875,5.2812 c -0.8755,-3.1249 -2.0837,-6.32 -3.625,-9.46861 z m -32.2187,3.49995 4.7187,8.74988 -8.9687,5.5 c -1.5899,-3.1653 -2.8228,-6.3483 -3.6875,-9.4062 z m 19.4687,4.34369 c 1.5271,3.18319 2.6989,6.41619 3.5,9.53109 l -8.2187,5 -4.7188,-8.7187 z m -30.9375,2.65619 c 0.9361,3.0686 2.2185,6.2222 3.8125,9.3436 l -9.8125,6.0312 c -1.6081,-3.0926 -2.6244,-6.4491 -3,-9.9061 z m 46.8125,4.0312 c -0.2387,4.2388 -1.4472,8.4718 -3.7187,12.4061 -1.0266,1.7781 -2.2064,3.4154 -3.5313,4.875 0.4829,-4.5601 0.2001,-8.4401 -0.5937,-12.5312 z m -28.7187,1.2188 4.6875,8.7186 -7.7188,4.7187 c -2.3589,-2.7252 -4.3411,-5.2396 -5.9062,-7.9374 z m 17.2187,5.7811 c 0.4449,4.5493 1.0637,10.939 -1.625,14.6873 l -5.5625,-10.3124 z m -29.5625,1.8125 c 1.7182,2.8312 3.8462,5.7685 5.8125,7.9687 l -8.1562,4.9686 c -2.917,-1.9262 -5.3752,-4.3017 -7.3125,-6.9999 z m 18.9375,4.6249 5.3125,9.8437 c -0.077,1e-4 -0.1398,0 -0.2187,0 -1.6699,-0.044 -3.8112,-0.6668 -6.125,-1.875 -1.813,-0.9467 -3.7196,-2.2568 -5.625,-3.9062 z m -10.2187,6.2499 c 2.4131,2.2217 4.9053,4.008 7.3437,5.2812 0.7006,0.3658 1.4019,0.7155 2.0938,1 -5.4328,1.0007 -11.1728,0.3961 -16.5,-1.9999 z" fill="#000000" fill-opacity="1" stroke="none" marker="none" visibility="visible" display="inline" overflow="visible"/></g><text x="0" y="115" fill="#000000" font-size="5px" font-weight="bold" font-family="'Helvetica Neue', Helvetica, Arial-Unicode, Arial, Sans-serif">Created by Rockicon</text><text x="0" y="120" fill="#000000" font-size="5px" font-weight="bold" font-family="'Helvetica Neue', Helvetica, Arial-Unicode, Arial, Sans-serif">from the Noun Project</text></svg>