<svg xmlns="http://www.w3.org/2000/svg" xmlns:xlink="http://www.w3.org/1999/xlink" version="1.1" x="0px" y="0px" viewBox="0 0 100 124.67750000000001" enable-background="new 0 0 100 99.742" xml:space="preserve"><g><path d="M99.648,17.019c1.279-3.29-2.14-6.27-3.393-7.224c-0.34-4.006-4.472-5.278-7.085-5.429   c-3.479-4.348-11.463-2.388-13.577-1.773c-1.886-1.28-3.834-1.734-5.796-1.35c-3.209,0.628-5.497,3.352-6.406,4.614   c-1.359-0.24-2.332,0.178-2.937,0.613c-2.02,1.456-2.472,4.818-2.571,6.386c-2.144,0.669-3.648,1.772-4.48,3.286   c-0.889,1.621-0.721,3.247-0.567,4.002c-2.939,6.465,2.33,12.633,3.465,13.852c0.625,2.292,1.726,3.757,3.275,4.355   c0.529,0.205,1.061,0.285,1.568,0.285c0.682,0,1.315-0.146,1.842-0.326c0.117,0.893,0.268,1.766,0.463,2.609H50.172v-1.093   c0-0.424-0.344-0.767-0.767-0.767h-5.742v-4.812c0-4.646-2.737-8.901-6.969-10.838c-0.94-0.44-2.331-1.437-2.331-2.182   c0-0.093,0.022-0.19,0.062-0.29c0.08-0.199,0.232-0.407,0.428-0.612c0.003-0.003,0.007-0.007,0.011-0.01   c0.49-0.509,1.247-0.997,1.83-1.27c0,0,0.001,0,0.001-0.001c3.786-1.736,6.358-5.325,6.862-9.386   c0.062-0.111,0.106-0.231,0.106-0.367c0-0.102-0.022-0.199-0.058-0.288c0.018-0.266,0.058-0.528,0.058-0.796V3.395h5.742   c0.424,0,0.767-0.344,0.767-0.767v-1.86C50.172,0.344,49.829,0,49.405,0H14.066c-0.424,0-0.767,0.344-0.767,0.767v1.86   c0,0.424,0.344,0.767,0.767,0.767h5.742v4.812c0,0.269,0.04,0.531,0.058,0.796c-0.036,0.089-0.058,0.186-0.058,0.288   c0,0.135,0.045,0.256,0.106,0.367c0.504,4.063,3.077,7.654,6.862,9.387c0.94,0.44,2.332,1.437,2.332,2.182s-1.392,1.742-2.328,2.18   c-4.235,1.939-6.972,6.194-6.972,10.84v4.812h-5.742c-0.424,0-0.767,0.344-0.767,0.767v1.093H8.776   c-0.424,0-0.767,0.344-0.767,0.767v2.475c0,0.424,0.344,0.767,0.767,0.767H9.92l0.235,0.548c0.739,1.725,0.63,3.684-0.221,5.34   H8.776c-0.424,0-0.767,0.344-0.767,0.767v2.38c0,0.424,0.344,0.767,0.767,0.767h6.394v1.706c0,0.424,0.344,0.767,0.767,0.767h1.209   c1.751,2.731,1.751,8.58-0.001,11.313h-1.208c-0.424,0-0.767,0.344-0.767,0.767v1.706H0.767C0.344,70.991,0,71.334,0,71.758v2.474   c0,0.424,0.344,0.767,0.767,0.767h0.882v5.888H0.767C0.344,80.887,0,81.231,0,81.654v2.476c0,0.424,0.344,0.767,0.767,0.767h10.311   v1.706c0,0.424,0.344,0.767,0.767,0.767h1.228c1.699,2.517,1.699,5.847,0.001,8.362h-1.229c-0.424,0-0.767,0.344-0.767,0.767v2.476   c0,0.424,0.344,0.767,0.767,0.767h46.012h29.864h6.538c0.565,0,1.023-0.458,1.023-1.023v-5.882v-0.256v-12.02   c0-0.565-0.458-1.023-1.023-1.023h-6.105l8.694-9.83c0.358-0.406,0.338-1.019-0.044-1.401l-5.874-5.873v-5.23h0.883   c0.424,0,0.767-0.344,0.767-0.767v-2.474c0-0.424-0.344-0.767-0.767-0.767h-3.804v-4.172c0-0.068-0.026-0.127-0.039-0.192   c2.917-4.171,4.835-9.997,4.974-16.278c1.282-0.495,2.66-1.273,2.753-2.59c0.03-0.427-0.084-0.799-0.268-1.115   c1.598-0.898,1.728-1.991,1.371-3.303c-0.176-0.641-0.19-0.693,0.563-1.07C100.844,22.737,100.003,18.369,99.648,17.019z    M14.881,87.371h41.953v5.211v0.256v2.895H14.881C16.239,93.127,16.239,89.978,14.881,87.371z M63.739,79.538h-5.882   c-0.565,0-1.023,0.458-1.023,1.023v0.326H3.184v-5.888h57.993L63.739,79.538z M74.311,91.559v-9.974h7.161v9.974H74.311z    M73.288,91.559h-7.161v-9.974h7.161V91.559z M58.88,81.584h6.224v9.974H58.88V81.584z M66.089,79.538l-5.562-9.855l20.806,9.855   H66.089z M57.327,66.655c-0.013,0.013-0.016,0.033-0.029,0.047c-0.082,0.091-0.141,0.193-0.186,0.305   c-0.011,0.027-0.03,0.049-0.039,0.077c-0.043,0.143-0.052,0.294-0.029,0.445c0.001,0.008-0.003,0.015-0.001,0.022   c0.005,0.03,0.028,0.052,0.035,0.081c0.022,0.084,0.036,0.169,0.081,0.249l0.359,0.635H18.921   c1.451-3.131,1.452-8.182,0.001-11.313h47.2v0.655L57.327,66.655z M66.123,48.363v2.454H11.654c0.737-1.88,0.726-4-0.066-5.888   h53.149c0.441,1.056,0.947,2.047,1.513,2.966C66.175,48.037,66.123,48.191,66.123,48.363z M36.05,24.801   c3.692,1.69,6.078,5.398,6.078,9.446v0.148c-0.838-1.371-1.983-2.56-3.409-3.443l-3.07-1.9c-0.805-0.507-1.287-1.377-1.287-2.33   V23.75C35.112,24.349,35.888,24.726,36.05,24.801z M21.343,8.207V3.395h20.785v4.812c0,0.107-0.02,0.211-0.023,0.318H21.366   C21.363,8.418,21.343,8.314,21.343,8.207z M14.833,1.86V1.534h33.805V1.86h-5.742h-22.32H14.833z M30.518,20.499   c-0.558-1.624-2.806-2.712-3.095-2.846c-0.001,0-0.001,0-0.002,0c0,0-0.001,0-0.001-0.001c-3.117-1.427-5.284-4.299-5.889-7.593   H41.94c-0.605,3.295-2.772,6.166-5.893,7.594c-0.33,0.153-3.219,1.552-3.219,3.573v5.496c0,1.484,0.75,2.84,2.01,3.631l3.074,1.903   c2.419,1.498,3.929,4.004,4.167,6.802H21.392c0.238-2.799,1.748-5.304,4.169-6.802l3.08-1.905c1.254-0.789,2.002-2.146,2.002-3.627   v-5.498C30.643,20.974,30.598,20.732,30.518,20.499z M21.343,34.247c0-4.048,2.386-7.755,6.08-9.447   c0.161-0.075,0.936-0.452,1.685-1.051v2.975c0,0.951-0.481,1.822-1.28,2.326l-3.075,1.902c-1.426,0.883-2.573,2.072-3.411,3.443   V34.247z M14.833,40.594h5.742h22.32h5.742v0.326H14.833V40.594z M10.426,43.394H9.544v-0.94h4.523h35.339h14.439   c0.095,0.321,0.208,0.628,0.313,0.94H10.426z M9.544,53.196v-0.845h0.882h55.697v0.845H15.937H9.544z M17.587,55.67h-0.882v-0.939   h49.418v0.939H17.587z M16.704,70.052h0.882h40.798l0.53,0.939h-42.21V70.052z M1.534,73.464v-0.939h14.403H59.78l0.53,0.939H2.417   H1.534z M1.534,83.363v-0.941h0.882h54.417v0.941H11.845H1.534z M13.495,85.836h-0.882v-0.939h44.221v0.939H13.495z M12.613,97.267   h0.882h43.339v0.941H12.613V97.267z M58.88,97.696V93.86h34.356v3.836H58.88z M93.236,91.559H82.494v-9.974h3.389h7.353V91.559z    M85.625,79.309L59.801,67.075l8.068-8.068c0.192-0.192,0.3-0.452,0.3-0.723v-7.796c2.622,2.944,5.996,4.685,9.724,4.685   c2.919,0,5.702-1.454,8.07-3.886v8.651c0,0.272,0.108,0.531,0.3,0.723l8.414,8.414L85.625,79.309z M88.009,59.514v-2.31h1.387V60.9   L88.009,59.514z M91.046,54.731v0.939h-0.883h-2.154v-0.939H91.046z M92.97,30.304v-0.977c0.052,0.04,0.106,0.076,0.166,0.107   c0.22,0.114,0.486,0.339,0.529,0.344C93.663,29.781,93.566,29.988,92.97,30.304z M96.449,22.647   c-2.254,1.127-1.842,2.63-1.622,3.439c0.168,0.615,0.238,0.87-1.55,1.467c-0.206,0.068-0.378,0.199-0.5,0.367   c-0.03-0.076-0.064-0.15-0.1-0.222l-1.077-2.159c-0.102-0.203-0.102-0.444,0-0.646c0.432-0.865,0.386-1.871-0.122-2.693   c-0.507-0.822-1.389-1.313-2.356-1.313h-0.877c-0.312,0-0.587-0.199-0.685-0.495l-0.619-1.857   c-0.254-0.761-0.825-1.375-1.566-1.682c-0.743-0.306-1.578-0.278-2.298,0.081l-0.601,0.301c-0.23,0.117-0.506,0.102-0.723-0.045   l-4.118-2.745c-0.088-0.059-0.186-0.087-0.283-0.116l-1.444-5.771c-0.068-0.274-0.34-0.441-0.619-0.373   c-0.274,0.069-0.442,0.347-0.372,0.62l1.445,5.777c-0.049,0.048-0.106,0.086-0.146,0.145c-0.314,0.471-0.186,1.105,0.284,1.419   l4.116,2.744c0.825,0.553,1.894,0.617,2.775,0.174l0.601-0.301c0.254-0.126,0.484-0.069,0.599-0.021   c0.114,0.047,0.318,0.167,0.408,0.44l0.619,1.857c0.378,1.133,1.435,1.893,2.627,1.893h0.877c0.364,0,0.551,0.24,0.615,0.343   c0.064,0.103,0.194,0.378,0.032,0.702c-0.388,0.775-0.388,1.701,0,2.476l1.077,2.16c0.052,0.101,0.078,0.212,0.078,0.322v2.895   c0,11.147-6.212,21.298-13.031,21.298c-6.779,0-12.26-6.906-13.035-16.421c-0.003-0.031-0.019-0.056-0.024-0.087   c-0.009-0.052-0.007-0.103-0.024-0.154l-1.337-4.005c-0.12-0.356-0.092-0.737,0.076-1.074l0.945-1.891   c0.242-0.477,0.368-1.012,0.368-1.546v-1.232c0-0.536,0.298-1.019,0.777-1.259l0.619-0.31c1.179-0.589,1.91-1.773,1.91-3.175   c0-0.459,0.214-0.874,0.583-1.142c0.372-0.269,0.833-0.341,1.269-0.194c1.471,0.494,3.103-0.066,3.966-1.361l1.868-2.803   c0.226-0.339,0.216-0.76,0.02-1.088c0.014-0.072,0.051-0.139,0.032-0.215l-1.652-6.613c-0.068-0.274-0.34-0.441-0.619-0.373   c-0.274,0.069-0.442,0.347-0.372,0.62l1.525,6.105c-0.25,0.054-0.482,0.199-0.636,0.429l-1.868,2.802   c-0.352,0.527-1.015,0.757-1.616,0.555c-1.069-0.355-2.202-0.182-3.111,0.476c-0.911,0.656-1.435,1.677-1.435,2.887   c0,0.536-0.298,1.019-0.779,1.259l-0.619,0.311c-1.177,0.589-1.908,1.772-1.908,3.088v1.232c0,0.217-0.052,0.434-0.15,0.629   l-0.947,1.894c-0.412,0.825-0.48,1.761-0.188,2.635l1.059,3.173c-0.593,0.243-1.489,0.475-2.286,0.161   c-0.947-0.371-1.648-1.45-2.088-3.207c-0.046-0.18-0.138-0.345-0.27-0.476c-0.06-0.061-6.058-6.16-3.115-12.046   c0.118-0.238,0.138-0.52,0.058-0.773c-0.004-0.015-0.448-1.461,0.32-2.835c0.643-1.151,1.962-1.982,3.916-2.472   c0.456-0.114,0.775-0.522,0.775-0.992c0-1.102,0.322-4.48,1.75-5.51c0.308-0.224,0.837-0.475,1.864-0.134   c0.452,0.154,0.955-0.032,1.201-0.444c0.022-0.037,2.234-3.667,5.475-4.302c1.515-0.295,3.071,0.134,4.607,1.287   c0.27,0.201,0.617,0.259,0.937,0.153c0.09-0.031,9.221-3.003,12.054,1.25c0.19,0.284,0.509,0.455,0.849,0.456   c0.228,0.001,5.592,0.066,5.592,3.937c0,0.342,0.172,0.661,0.456,0.851c0.042,0.028,4.174,2.874,2.959,5.305   c-0.122,0.243-0.142,0.523-0.056,0.781C97.604,17.312,98.934,21.405,96.449,22.647z"/><path d="M70.452,29.664c-2.032,0-3.62,1.749-3.688,1.823c-0.174,0.195-0.174,0.489,0,0.683c0.068,0.074,1.656,1.823,3.688,1.823   s3.62-1.749,3.688-1.823c0.174-0.195,0.174-0.489,0-0.683C74.073,31.413,72.484,29.664,70.452,29.664z M70.452,32.97   c-1.087,0-2.064-0.703-2.567-1.142c0.504-0.439,1.481-1.142,2.567-1.142c1.087,0,2.064,0.703,2.567,1.142   C72.516,32.267,71.539,32.97,70.452,32.97z"/><path d="M80.373,38.953c0.032,0,0.066-0.003,0.1-0.01c0.278-0.055,0.458-0.325,0.402-0.601l-1.598-7.989   c0.741-0.675,3.457-2.959,5.904-2.559c1.227,0.2,2.238,1.078,3.003,2.61c0.128,0.254,0.442,0.358,0.685,0.229   c0.254-0.127,0.356-0.434,0.23-0.686c-0.921-1.844-2.186-2.908-3.756-3.163c-3.351-0.549-6.839,2.884-6.985,3.03   c-0.122,0.121-0.174,0.295-0.14,0.462l1.654,8.267C79.919,38.786,80.133,38.953,80.373,38.953z"/><path d="M84.506,29.664c-1.624,0-2.855,1.803-2.905,1.879c-0.118,0.173-0.118,0.399,0,0.571c0.05,0.076,1.281,1.879,2.905,1.879   c1.622,0,2.853-1.803,2.903-1.879c0.116-0.173,0.116-0.399,0-0.571C87.36,31.467,86.129,29.664,84.506,29.664z M84.506,32.97   c-0.723,0-1.447-0.674-1.838-1.142c0.392-0.468,1.115-1.142,1.838-1.142c0.721,0,1.445,0.674,1.836,1.142   C85.951,32.296,85.228,32.97,84.506,32.97z"/><path d="M70.636,26.805c-3.145,0-5.445,2.757-5.541,2.874c-0.18,0.219-0.148,0.54,0.07,0.719c0.22,0.179,0.541,0.147,0.721-0.07   c0.02-0.025,2.094-2.501,4.749-2.501c0.002,0,0.004,0,0.006,0c1.542,0.002,3.015,0.843,4.374,2.501   c0.102,0.123,0.248,0.187,0.396,0.187c0.114,0,0.23-0.038,0.324-0.116c0.22-0.179,0.252-0.502,0.072-0.72   C74.243,27.772,72.502,26.805,70.636,26.805z"/></g><text x="0" y="114.742" fill="#000000" font-size="5px" font-weight="bold" font-family="'Helvetica Neue', Helvetica, Arial-Unicode, Arial, Sans-serif">Created by Dairy Free Design</text><text x="0" y="119.742" fill="#000000" font-size="5px" font-weight="bold" font-family="'Helvetica Neue', Helvetica, Arial-Unicode, Arial, Sans-serif">from the Noun Project</text></svg>