<svg xmlns="http://www.w3.org/2000/svg" xmlns:xlink="http://www.w3.org/1999/xlink" version="1.1" x="0px" y="0px" viewBox="0 0 100 125" enable-background="new 0 0 100 100" xml:space="preserve"><g><g><g><polygon fill="none" points="16.031,74.331 16.031,62.765 14.865,62.765 13.976,62.765 13.976,74.331    "/><polygon fill="none" points="25.741,49.82 25.741,61.377 26.789,61.377 30.975,61.377 30.975,49.82    "/><rect x="17.419" y="62.765" fill="none" width="2.055" height="11.566"/><path fill="none" d="M38.268,61.377l-5.287-5.293c-0.271-0.271-0.27-0.709,0-0.98l5.287-5.284h-5.906v11.558H38.268z"/><rect x="35.897" y="52.112" transform="matrix(0.7076 -0.7067 0.7067 0.7076 -27.7728 44.0883)" fill="none" width="6.968" height="6.975"/><path fill="none" d="M14.865,61.377h2.607V49.82h-2.607c-0.434,0-0.787,0.35-0.787,0.781v9.993     C14.077,61.026,14.43,61.377,14.865,61.377z"/><rect x="20.861" y="62.765" fill="none" width="5.234" height="11.566"/><rect x="22.299" y="49.82" fill="none" width="2.055" height="11.558"/><rect x="18.859" y="49.82" fill="none" width="2.052" height="11.558"/><path fill="none" d="M12.589,62.765h-2.512c-0.476,0-0.877,0.401-0.877,0.877v9.811c0,0.484,0.393,0.878,0.877,0.878h2.512     V62.765z"/><rect x="56.706" y="49.82" fill="none" width="2.055" height="11.558"/><rect x="53.267" y="49.82" fill="none" width="2.052" height="11.558"/><path fill="none" d="M45.782,55.111c0.271,0.271,0.271,0.71,0,0.981l-5.284,5.285h1.712h4.186V49.82h-5.906L45.782,55.111z"/><rect x="42.903" y="62.765" fill="none" width="4.094" height="11.566"/><rect x="51.829" y="62.765" fill="none" width="2.052" height="11.566"/><rect x="47.783" y="49.82" fill="none" width="4.097" height="11.558"/><rect x="48.383" y="62.765" fill="none" width="2.058" height="11.566"/><path fill="none" d="M69.311,44.767c0.091-0.373,0.467-0.595,0.839-0.507l7.256,1.781l-3.058-5.045l-9.887,5.99l3.061,5.051     L69.311,44.767z"/><rect x="57.158" y="32.291" transform="matrix(0.8552 -0.5182 0.5182 0.8552 -8.1553 37.44)" fill="none" width="11.559" height="2.054"/><rect x="69.553" y="46.505" transform="matrix(0.2385 -0.9712 0.9712 0.2385 7.0779 109.0028)" fill="none" width="6.976" height="6.967"/><rect x="61.549" y="37.944" transform="matrix(0.8552 -0.5182 0.5182 0.8552 -11.2748 40.7654)" fill="none" width="11.56" height="5.24"/><rect x="58.941" y="35.233" transform="matrix(0.8554 -0.5179 0.5179 0.8554 -9.4228 38.7602)" fill="none" width="11.56" height="2.053"/><path fill="none" d="M28.101,69.037c-0.27-0.271-0.271-0.709,0-0.98l5.286-5.292h-1.718h-4.186v11.566h5.912L28.101,69.037z"/><path fill="none" d="M88.749,64.753l-9.888,5.994l1.942,3.205c0.216,0.36,0.715,0.482,1.081,0.265l8.542-5.175     c0.369-0.226,0.489-0.712,0.265-1.084L88.749,64.753z"/><path fill="none" d="M78.559,47.942l-1.784,7.268c-0.077,0.316-0.36,0.528-0.672,0.528c-0.055,0-0.11-0.006-0.167-0.021     l-7.262-1.781l3.06,5.049l9.888-5.989L78.559,47.942z"/><path fill="none" d="M66.63,28.259l-1.353-2.232c-0.141-0.233-0.399-0.377-0.676-0.377c-0.142,0-0.28,0.039-0.4,0.11     l-8.547,5.183c-0.177,0.107-0.302,0.279-0.352,0.484c-0.05,0.204-0.019,0.412,0.089,0.587l1.354,2.235L66.63,28.259z"/><path fill="none" d="M35.605,62.765l5.297,5.301c0.271,0.271,0.271,0.709,0,0.98l-5.288,5.285h5.901V62.765H35.605z"/><rect x="31.017" y="65.06" transform="matrix(0.7073 -0.7069 0.7069 0.7073 -38.359 44.4503)" fill="none" width="6.966" height="6.978"/><path fill="none" d="M58.921,62.765h-3.653v11.566h3.653c0.484,0,0.877-0.394,0.877-0.878v-9.811     C59.798,63.157,59.406,62.765,58.921,62.765z"/><rect x="72.677" y="56.88" transform="matrix(0.8553 -0.5181 0.5181 0.8553 -19.1787 49.1731)" fill="none" width="11.562" height="4.094"/><rect x="76.772" y="64.658" transform="matrix(0.8553 -0.5181 0.5181 0.8553 -22.0885 52.2787)" fill="none" width="11.563" height="2.055"/><path fill="none" d="M63.896,49.82h-3.748v11.558h3.748c0.431,0,0.782-0.351,0.782-0.783v-9.993     C64.678,50.17,64.327,49.82,63.896,49.82z"/><rect x="74.989" y="61.714" transform="matrix(0.8552 -0.5183 0.5183 0.8552 -20.8239 50.9483)" fill="none" width="11.562" height="2.056"/><path d="M91.877,67.24l-4.083-6.736c-0.001-0.001-0.001-0.003-0.001-0.004s-0.002-0.002-0.003-0.003l-1.782-2.94     c0,0,0-0.001,0-0.001s-0.001-0.001-0.001-0.001L71.75,34.032c-0.003-0.006-0.003-0.012-0.006-0.018S71.734,34.006,71.731,34     l-1.771-2.922c0,0,0-0.001,0-0.001s-0.001,0-0.001-0.001l-3.495-5.767c-0.587-0.98-1.99-1.331-2.979-0.737l-8.548,5.183     c-0.495,0.299-0.844,0.776-0.981,1.342c-0.139,0.566-0.049,1.148,0.251,1.637l1.704,2.812c0.003,0.005,0.003,0.01,0.005,0.015     c0.002,0.004,0.006,0.005,0.009,0.008l1.77,2.921c0.002,0.003,0.002,0.007,0.004,0.01c0.002,0.003,0.004,0.003,0.006,0.006     l1.775,2.93c0.001,0.003,0.001,0.005,0.003,0.008c0.001,0.002,0.003,0.003,0.005,0.004l3.418,5.641     c0.004,0.007,0.004,0.016,0.008,0.023l0.799,1.319H47.089h-15.42H14.865c-1.199,0-2.175,0.973-2.175,2.169v9.993     c0,0.277,0.057,0.54,0.152,0.783h-2.766c-1.249,0-2.264,1.016-2.264,2.264v9.811c0,1.249,1.016,2.266,2.264,2.266h16.712h15.42     h16.712c1.249,0,2.265-1.017,2.265-2.266v-9.811c0-0.311-0.063-0.607-0.177-0.877h2.887c1.196,0,2.17-0.974,2.17-2.171v-8.276     l4.836,7.982c0.004,0.007,0.012,0.009,0.017,0.016l4.611,7.61c0,0.001,0,0.002,0.001,0.003c0,0.001,0.001,0.001,0.001,0.001     l1.776,2.931c0.003,0.004,0.002,0.009,0.005,0.014c0.002,0.003,0.006,0.004,0.008,0.008l2.294,3.786     c0.395,0.656,1.09,1.048,1.859,1.048c0.394,0,0.781-0.107,1.124-0.313l8.548-5.178C92.165,69.603,92.493,68.264,91.877,67.24z      M58.761,61.377h-2.055V49.82h2.055V61.377z M53.267,61.377V49.82h2.052v11.558H53.267z M46.996,62.765v11.566h-4.094V62.765     H46.996z M47.783,61.377V49.82h4.097v11.558H47.783z M48.383,62.765h2.058v11.566h-2.058V62.765z M51.829,62.765h2.052v11.566     h-2.052V62.765z M46.395,61.377h-4.186h-1.712l5.284-5.285c0.271-0.271,0.271-0.71,0-0.981l-5.292-5.291h5.906V61.377z      M39.382,60.53l-4.93-4.936l4.927-4.924l4.932,4.931L39.382,60.53z M38.268,49.82l-5.287,5.284c-0.27,0.271-0.271,0.709,0,0.98     l5.287,5.293h-5.906V49.82H38.268z M26.789,61.377h-1.048V49.82h5.234v11.558H26.789z M14.865,62.765h1.167v11.566h-2.055V62.765     H14.865z M17.419,62.765h2.055v11.566h-2.055V62.765z M22.299,61.377V49.82h2.055v11.558H22.299z M20.911,61.377h-2.052V49.82     h2.052V61.377z M20.861,62.765h5.234v11.566h-5.234V62.765z M14.077,50.601c0-0.431,0.353-0.781,0.787-0.781h2.607v11.558h-2.607     c-0.434,0-0.787-0.351-0.787-0.783V50.601z M9.199,73.452v-9.811c0-0.476,0.401-0.877,0.877-0.877h2.512v11.566h-2.512     C9.592,74.331,9.199,73.937,9.199,73.452z M27.483,62.765h4.186h1.718l-5.286,5.292c-0.271,0.271-0.27,0.709,0,0.98l5.293,5.293     h-5.912V62.765z M34.496,63.617l4.935,4.938l-4.927,4.924l-4.932-4.932L34.496,63.617z M35.614,74.331l5.288-5.285     c0.271-0.271,0.271-0.709,0-0.98l-5.297-5.301h5.911v11.566H35.614z M59.798,73.452c0,0.484-0.393,0.878-0.877,0.878h-3.653     V62.765h3.653c0.484,0,0.877,0.393,0.877,0.877V73.452z M64.678,60.594c0,0.432-0.351,0.783-0.782,0.783h-3.748V49.82h3.748     c0.431,0,0.782,0.35,0.782,0.781V60.594z M77.076,67.803l9.889-5.991l1.064,1.756l-9.888,5.994L77.076,67.803z M75.293,64.86     l9.888-5.993l1.066,1.759l-9.889,5.991L75.293,64.86z M72.452,60.171l9.889-5.99l2.121,3.5l-9.888,5.993L72.452,60.171z      M61.028,41.318l9.886-5.991l2.716,4.482l-9.887,5.99L61.028,41.318z M59.244,38.375l9.888-5.987l1.063,1.754l-9.886,5.991     L59.244,38.375z M57.463,35.435l9.886-5.99l1.066,1.758l-9.888,5.987L57.463,35.435z M74.348,40.995l3.058,5.045L70.15,44.26     c-0.372-0.088-0.748,0.134-0.839,0.507l-1.789,7.269l-3.061-5.051L74.348,40.995z M77.257,47.431l-1.663,6.775l-6.768-1.66     l1.667-6.774L77.257,47.431z M68.674,53.936l7.262,1.781c0.056,0.015,0.111,0.021,0.167,0.021c0.311,0,0.595-0.212,0.672-0.528     l1.784-7.268l3.063,5.055l-9.888,5.989L68.674,53.936z M55.302,31.427c0.05-0.205,0.175-0.377,0.352-0.484l8.547-5.183     c0.12-0.072,0.258-0.11,0.4-0.11c0.277,0,0.535,0.144,0.676,0.377l1.353,2.232l-9.886,5.99l-1.354-2.235     C55.283,31.839,55.252,31.631,55.302,31.427z M90.426,69.041l-8.542,5.175c-0.367,0.218-0.866,0.096-1.081-0.265l-1.942-3.205     l9.888-5.994l1.942,3.204C90.914,68.329,90.794,68.815,90.426,69.041z"/></g></g></g><text x="0" y="115" fill="#000000" font-size="5px" font-weight="bold" font-family="'Helvetica Neue', Helvetica, Arial-Unicode, Arial, Sans-serif">Created by Prime Icons</text><text x="0" y="120" fill="#000000" font-size="5px" font-weight="bold" font-family="'Helvetica Neue', Helvetica, Arial-Unicode, Arial, Sans-serif">from the Noun Project</text></svg>