<svg xmlns="http://www.w3.org/2000/svg" xmlns:xlink="http://www.w3.org/1999/xlink" version="1.1" x="0px" y="0px" viewBox="0 0 100 125" style="enable-background:new 0 0 100 100;" xml:space="preserve"><path d="M23.5,45.1L36.2,50l-12.7,4.9c-0.9,0.3-1.7,0.8-2.4,1.4c-1.9,1.5-3.1,3.7-3.3,6.1c-0.3,2.4,0.4,4.8,2,6.7  c1.5,1.9,3.7,3.1,6.1,3.3c2.4,0.3,4.8-0.4,6.7-2l10.6-8.5L41,75.4c-0.1,0.9-0.1,1.9,0,2.8c0.7,4.5,4.6,7.7,9,7.7  c0.5,0,0.9,0,1.4-0.1c2.4-0.4,4.5-1.7,5.9-3.6s2-4.4,1.6-6.8l-2.1-13.4l10.6,8.5c0.7,0.6,1.6,1.1,2.4,1.4c4.7,1.8,10-0.5,11.8-5.2  c0.9-2.3,0.8-4.7-0.2-7c-1-2.2-2.8-3.9-5-4.8L63.8,50l12.7-4.9c0.9-0.3,1.7-0.8,2.4-1.4c1.9-1.5,3.1-3.7,3.3-6.1s-0.4-4.8-2-6.7  c-1.5-1.9-3.7-3.1-6.1-3.3c-2.4-0.3-4.8,0.4-6.7,2l-10.6,8.5L59,24.6c0.1-0.9,0.1-1.9,0-2.8c-0.4-2.4-1.7-4.5-3.6-5.9  c-2-1.4-4.4-2-6.8-1.6c-5,0.8-8.4,5.4-7.6,10.4l2.1,13.4l-10.6-8.5c-0.7-0.6-1.6-1.1-2.4-1.4c-4.7-1.8-10,0.5-11.8,5.2  c-0.9,2.3-0.8,4.7,0.2,7S21.3,44.2,23.5,45.1z M20.2,34.1c1.4-3.7,5.5-5.5,9.2-4.1c0.7,0.3,1.3,0.6,1.9,1.1l14.6,11.8L43,24.3  c-0.6-3.9,2-7.5,5.9-8.1c1.9-0.3,3.7,0.2,5.3,1.3c1.5,1.1,2.5,2.8,2.8,4.6c0.1,0.7,0.1,1.5,0,2.2l-2.9,18.6l14.6-11.8  c1.5-1.2,3.3-1.7,5.2-1.5c1.9,0.2,3.6,1.1,4.8,2.6c1.2,1.5,1.7,3.3,1.5,5.2s-1.1,3.6-2.6,4.8c-0.6,0.5-1.2,0.8-1.9,1.1L58.2,50  l17.5,6.8c1.8,0.7,3.2,2,3.9,3.7c0.8,1.7,0.8,3.7,0.1,5.4c-1.4,3.7-5.5,5.5-9.2,4.1c-0.7-0.3-1.3-0.6-1.9-1.1L54.1,57.1L57,75.7  c0.3,1.9-0.2,3.7-1.3,5.3c-1.1,1.5-2.8,2.5-4.6,2.8c-3.9,0.6-7.5-2-8.1-5.9c-0.1-0.7-0.1-1.5,0-2.2l2.9-18.6L31.3,68.9  c-1.5,1.2-3.3,1.7-5.2,1.5c-1.9-0.2-3.6-1.1-4.8-2.6c-1.2-1.5-1.7-3.3-1.5-5.2c0.2-1.9,1.1-3.6,2.6-4.8c0.6-0.4,1.2-0.8,1.9-1.1  L41.8,50l-17.5-6.8c-1.8-0.7-3.2-2-3.9-3.7C19.6,37.8,19.5,35.8,20.2,34.1z"/><text x="0" y="115" fill="#000000" font-size="5px" font-weight="bold" font-family="'Helvetica Neue', Helvetica, Arial-Unicode, Arial, Sans-serif">Created by mikicon</text><text x="0" y="120" fill="#000000" font-size="5px" font-weight="bold" font-family="'Helvetica Neue', Helvetica, Arial-Unicode, Arial, Sans-serif">from the Noun Project</text></svg>