<svg xmlns="http://www.w3.org/2000/svg" xmlns:xlink="http://www.w3.org/1999/xlink" version="1.1" x="0px" y="0px" viewBox="0 0 100 125" enable-background="new 0 0 100 100" xml:space="preserve"><path d="M88.3,11.5c-0.5-0.4-1.1-0.5-1.7-0.4l-48,10c-0.9,0.2-1.6,1-1.6,2v40.8c-2.7-3-6.7-4.8-11-4.8c-8.3,0-15,6.7-15,15  c0,8.3,6.7,15,15,15s15-6.7,15-15V38.6l44-9.2v24.4c-2.7-3-6.7-4.8-11-4.8c-8.3,0-15,6.7-15,15c0,8.3,6.7,15,15,15s15-6.7,15-15V13  C89,12.4,88.7,11.8,88.3,11.5z M26,85c-6.1,0-11-4.9-11-11s4.9-11,11-11s11,4.9,11,11S32.1,85,26,85z M74,75c-6.1,0-11-4.9-11-11  s4.9-11,11-11s11,4.9,11,11S80.1,75,74,75z M85,25.4l-44,9.2v-9.9l44-9.2V25.4z"/><text x="0" y="115" fill="#000000" font-size="5px" font-weight="bold" font-family="'Helvetica Neue', Helvetica, Arial-Unicode, Arial, Sans-serif">Created by Bryn Taylor</text><text x="0" y="120" fill="#000000" font-size="5px" font-weight="bold" font-family="'Helvetica Neue', Helvetica, Arial-Unicode, Arial, Sans-serif">from the Noun Project</text></svg>