<svg xmlns="http://www.w3.org/2000/svg" xmlns:xlink="http://www.w3.org/1999/xlink" version="1.1" x="0px" y="0px" viewBox="0 0 100 125" enable-background="new 0 0 100 100" xml:space="preserve"><g><path d="M15.115,38.294h-2.612H7.886C6.292,38.294,5,39.586,5,41.181v10.427c0,1.593,1.292,2.886,2.884,2.886h0.701v15.204   c0,1.229,0.996,2.225,2.225,2.225h3.383c1.229,0,2.226-0.996,2.226-2.225V56.466c-0.816-1.206-1.304-2.651-1.304-4.215V38.294z"/><path d="M12.503,28.077c-2.484,0-4.497,2.013-4.497,4.497c0,0.809,0.231,1.557,0.605,2.213c0.773,1.357,2.217,2.283,3.892,2.283   c1.055,0,2.012-0.379,2.779-0.987c0.272-1.28,0.873-2.437,1.704-3.388c0.001-0.041,0.012-0.08,0.012-0.121   C16.998,30.09,14.985,28.077,12.503,28.077z"/><path d="M92.114,38.294h-4.617h-2.611v13.957c0,1.563-0.488,3.01-1.306,4.216v13.231c0,1.229,0.996,2.225,2.225,2.225h3.383   c1.23,0,2.226-0.996,2.226-2.225V54.494h0.701c1.594,0,2.886-1.293,2.886-2.886V41.181C95,39.586,93.708,38.294,92.114,38.294z"/><path d="M87.497,37.069c1.674,0,3.116-0.926,3.891-2.283c0.374-0.656,0.604-1.405,0.604-2.213c0-2.483-2.013-4.497-4.495-4.497   c-2.483,0-4.497,2.013-4.497,4.497c0,0.041,0.012,0.079,0.013,0.119c0.833,0.952,1.435,2.109,1.706,3.391   C85.485,36.691,86.442,37.069,87.497,37.069z"/><path d="M32.986,34.125c0-0.173,0.016-0.343,0.026-0.514h-3.886h-6.464c-2.231,0-4.04,1.809-4.04,4.042v14.598   c0,2.231,1.809,4.042,4.039,4.042h0.982v21.284c0,1.72,1.394,3.115,3.114,3.115h4.735c1.722,0,3.117-1.396,3.117-3.115V57.938   c-1.018-1.425-1.623-3.163-1.623-5.044V34.125z"/><path d="M29.126,19.308c-3.477,0-6.296,2.818-6.296,6.294c0,1.766,0.729,3.359,1.9,4.502c1.135,1.108,2.685,1.793,4.396,1.793   c1.71,0,3.26-0.685,4.394-1.793c1.17-1.143,1.899-2.736,1.899-4.502C35.419,22.126,32.602,19.308,29.126,19.308z"/><path d="M77.337,33.612h-6.464h-3.885c0.009,0.171,0.025,0.34,0.025,0.514v18.769c0,1.881-0.605,3.62-1.624,5.045v19.638   c0,1.72,1.394,3.115,3.114,3.115h4.735c1.723,0,3.116-1.396,3.116-3.115V56.293h0.981c2.231,0,4.041-1.811,4.041-4.042V37.653   C81.378,35.42,79.568,33.612,77.337,33.612z"/><path d="M58.312,28.93H50h-8.311c-2.869,0-5.195,2.326-5.195,5.196v18.769c0,2.868,2.326,5.195,5.193,5.195h1.262v27.366   c0,2.212,1.792,4.006,4.005,4.006h6.089c2.214,0,4.006-1.794,4.006-4.006V58.09h1.263c2.867,0,5.194-2.327,5.194-5.195V34.125   C63.506,31.255,61.179,28.93,58.312,28.93z"/><path d="M45.605,25.422c1.267,0.821,2.773,1.303,4.395,1.303c1.621,0,3.128-0.482,4.394-1.303c2.223-1.442,3.697-3.943,3.697-6.791   c0-4.47-3.622-8.093-8.091-8.093c-4.47,0-8.094,3.624-8.094,8.093C41.906,21.479,43.38,23.979,45.605,25.422z"/><path d="M70.873,31.897c1.711,0,3.26-0.685,4.394-1.793c1.171-1.143,1.899-2.736,1.899-4.502c0-3.476-2.817-6.294-6.293-6.294   c-3.477,0-6.296,2.818-6.296,6.294c0,1.766,0.729,3.359,1.9,4.502C67.612,31.212,69.162,31.897,70.873,31.897z"/></g><text x="0" y="115" fill="#000000" font-size="5px" font-weight="bold" font-family="'Helvetica Neue', Helvetica, Arial-Unicode, Arial, Sans-serif">Created by Wilson Joseph</text><text x="0" y="120" fill="#000000" font-size="5px" font-weight="bold" font-family="'Helvetica Neue', Helvetica, Arial-Unicode, Arial, Sans-serif">from the Noun Project</text></svg>