<svg xmlns="http://www.w3.org/2000/svg" xmlns:xlink="http://www.w3.org/1999/xlink" version="1.1" x="0px" y="0px" viewBox="0 0 90 112.5" style="enable-background:new 0 0 90 90;" xml:space="preserve"><path d="M19.57959,18.372986v3.333069h-3.431213v2.791016h57.703247v-2.791016H21.57959v-2.918945l3.577087-3.577148h2.927246  c0.449585,1.779297,2.050903,3.105408,3.967896,3.105408h6.893982c2.263672,0,4.10498-1.841797,4.10498-4.105408  c0-2.263672-1.841309-4.105469-4.10498-4.105469h-6.893982c-1.916992,0-3.518433,1.326172-3.967896,3.105469h-3.341248  c-0.265198,0-0.519592,0.105408-0.707092,0.292908l-4.162964,4.163086C19.68512,17.853455,19.57959,18.107361,19.57959,18.372986z"/><path d="M65.585876,51.65918l7.903442-25.162109H16.509277l7.87793,25.162109h5.127869v-9.981506c0-0.552673,0.447815-1,1-1  h28.969849c0.552185,0,1,0.447327,1,1v9.981506H65.585876z"/><path d="M58.484924,75.444275V42.677673H31.515076v32.766602h5.239319V47.438477c0-1.494202,1.21582-2.710022,2.710022-2.710022  c1.494568,0,2.710388,1.21582,2.710388,2.710022v28.005798h5.650391V47.438477c0-1.494202,1.21582-2.710022,2.710388-2.710022  c1.494202,0,2.710022,1.21582,2.710022,2.710022v28.005798H58.484924z"/><path d="M49.825195,47.438477v28.005798h1.42041V47.438477c0-0.384766-0.325195-0.710022-0.710022-0.710022  C50.143982,46.728455,49.825195,47.046875,49.825195,47.438477z"/><path d="M38.754395,47.438477v28.005798h1.42041V47.438477c0-0.391602-0.318787-0.710022-0.710388-0.710022  C39.07959,46.728455,38.754395,47.053711,38.754395,47.438477z"/><path d="M71.887695,77.444275H18.112305c-1.371582,0-2.492676,1.091797-2.541504,2.451233h58.858398  C74.380371,78.536072,73.259277,77.444275,71.887695,77.444275z"/><text x="0" y="105" fill="#000000" font-size="5px" font-weight="bold" font-family="'Helvetica Neue', Helvetica, Arial-Unicode, Arial, Sans-serif">Created by iconcheese</text><text x="0" y="110" fill="#000000" font-size="5px" font-weight="bold" font-family="'Helvetica Neue', Helvetica, Arial-Unicode, Arial, Sans-serif">from the Noun Project</text></svg>