<svg xmlns="http://www.w3.org/2000/svg" xmlns:xlink="http://www.w3.org/1999/xlink" version="1.1" x="0px" y="0px" viewBox="0 0 100 125" enable-background="new 0 0 100 100" xml:space="preserve"><path d="M53.3,84.5L40.4,53.1V31.9h0.1c0.5,0,1-0.2,1.4-0.6c0.3-0.4,0.6-0.8,0.6-1.4c0-1.1-0.9-1.9-1.9-1.9H23.7  c-0.5,0-1,0.2-1.3,0.6c-0.3,0.4-0.6,0.8-0.6,1.4c0,1.1,0.9,1.9,1.9,1.9h0.1v21.2L10.9,84.5c-0.8,1.7,0.5,3.7,2.4,3.7H51  C52.9,88.2,54.1,86.2,53.3,84.5z M14.5,84h-1.2l12.2-29.4h1.2L14.5,84z M27.1,52.4h-1.2V32.1h1.2V52.4z"/><path d="M86.8,11.8v14.9H74v-6.4h0.1c0.9,0,1.6-0.7,1.6-1.6c0-0.9-0.7-1.6-1.6-1.6H60.4c-0.8,0-1.5,0.7-1.5,1.6  c0,0.9,0.7,1.6,1.5,1.6h0.1v6.4h-1.2v3.3h1.2v40.8c0,3.7,3,6.8,6.7,6.8c3.7,0,6.8-3,6.8-6.8V30.1h12.8v51.7H56.5v6.4h32.8V11.8H86.8  z M63.2,71H62V20.5h1.2V71z"/><circle cx="36.2" cy="22.2" r="3.8"/><circle cx="40.6" cy="16.1" r="1.5"/><text x="0" y="115" fill="#000000" font-size="5px" font-weight="bold" font-family="'Helvetica Neue', Helvetica, Arial-Unicode, Arial, Sans-serif">Created by Ewe Jin Tee</text><text x="0" y="120" fill="#000000" font-size="5px" font-weight="bold" font-family="'Helvetica Neue', Helvetica, Arial-Unicode, Arial, Sans-serif">from the Noun Project</text></svg>