<svg xmlns="http://www.w3.org/2000/svg" xmlns:xlink="http://www.w3.org/1999/xlink" version="1.1" x="0px" y="0px" viewBox="0 0 64 80" style="enable-background:new 0 0 64 64;" xml:space="preserve"><path d="M2.009,50.183c0.008,0.495,0.051,0.98,0.116,1.458c0.01,0.074,0.022,0.146,0.034,0.22c0.074,0.472,0.172,0.934,0.299,1.386  c0.005,0.017,0.008,0.034,0.013,0.052c0.282,0.983,0.687,1.911,1.195,2.773c0.032,0.055,0.066,0.109,0.1,0.164  c0.232,0.379,0.482,0.744,0.753,1.094c0.036,0.047,0.07,0.096,0.107,0.143c0.304,0.381,0.628,0.744,0.976,1.085  c0.053,0.052,0.111,0.099,0.165,0.15c0.29,0.274,0.593,0.532,0.908,0.777c0.108,0.084,0.218,0.166,0.329,0.246  c0.272,0.196,0.552,0.378,0.84,0.551c0.014,0.009,0.025,0.022,0.04,0.031c0.041,0.024,0.082,0.048,0.124,0.072  c0.052,0.034,0.104,0.067,0.158,0.098c0.003,0.002,0.006,0.004,0.009,0.006c0.002,0.001,0.004,0.001,0.007,0.003  c0.011,0.006,0.022,0.01,0.033,0.016c0.445,0.246,0.911,0.458,1.388,0.647c0.044,0.017,0.088,0.032,0.132,0.049  c0.384,0.147,0.777,0.273,1.178,0.38c0.094,0.025,0.189,0.05,0.284,0.073c0.359,0.086,0.725,0.155,1.096,0.208  c0.105,0.015,0.209,0.036,0.315,0.048C13.065,61.966,13.528,62,14,62c0.479,0,0.949-0.036,1.414-0.091  c0.035-0.004,0.071-0.012,0.107-0.016c0.46-0.059,0.911-0.146,1.353-0.255c0.013-0.003,0.026-0.004,0.038-0.007  c0.007-0.002,0.012-0.006,0.018-0.007c3.865-0.976,6.982-3.824,8.334-7.526c0.003-0.009,0.01-0.016,0.013-0.025  c0.008-0.023,0.014-0.047,0.022-0.07c0.098-0.276,0.187-0.556,0.265-0.841c0.022-0.08,0.042-0.16,0.062-0.24  c0.063-0.251,0.122-0.504,0.169-0.761c0.029-0.156,0.049-0.313,0.072-0.47c0.027-0.193,0.059-0.383,0.077-0.579  C25.979,50.741,26,50.371,26,50c0-0.391-0.021-0.78-0.059-1.168c-0.021-0.214-0.059-0.423-0.091-0.633  c-0.025-0.164-0.043-0.329-0.075-0.492c-0.055-0.284-0.128-0.561-0.203-0.838c-0.023-0.084-0.04-0.17-0.065-0.254  c-0.089-0.302-0.194-0.596-0.306-0.887c-0.02-0.051-0.033-0.104-0.053-0.155c-0.002-0.006-0.007-0.011-0.01-0.017  c-1.202-3.003-3.578-5.411-6.564-6.647c-0.007-0.003-0.012-0.008-0.018-0.01c-0.047-0.019-0.097-0.031-0.144-0.049  c-0.359-0.143-0.726-0.268-1.101-0.376c-0.082-0.023-0.165-0.042-0.247-0.064c-0.367-0.097-0.74-0.177-1.12-0.239  c-0.058-0.009-0.116-0.018-0.174-0.027c-0.419-0.062-0.844-0.103-1.275-0.12c-0.013-0.001-0.026-0.002-0.04-0.002  C14.302,38.017,14.153,38,14,38c-1.771,0-3.449,0.396-4.964,1.088c-0.006,0.003-0.012,0.006-0.018,0.008  c-0.397,0.182-0.781,0.386-1.153,0.609c-0.027,0.016-0.056,0.028-0.083,0.044c-0.009,0.005-0.014,0.015-0.023,0.02  C4.313,41.881,2,45.671,2,50c0,0.05,0.007,0.098,0.008,0.148c0,0.002-0.001,0.003-0.001,0.005  C2.007,50.163,2.009,50.172,2.009,50.183z M9.698,40.986c0.227-0.109,0.456-0.21,0.69-0.301c0.032-0.012,0.064-0.023,0.096-0.035  c0.986-0.371,2.026-0.579,3.072-0.628c0.09-0.004,0.18-0.012,0.27-0.014c0.176-0.004,0.352,0.003,0.528,0.009  c0.149,0.005,0.298,0.011,0.445,0.023c0.154,0.012,0.307,0.029,0.46,0.048c0.165,0.021,0.328,0.046,0.49,0.075  c0.142,0.025,0.284,0.05,0.425,0.082c0.045,0.01,0.088,0.024,0.133,0.034L13.586,43h-2.968l-0.99-1.98  C9.651,41.009,9.675,40.998,9.698,40.986z M21.844,51.537l2.012-3.163c0.018,0.109,0.036,0.218,0.05,0.328  c0.017,0.126,0.036,0.251,0.047,0.377C23.981,49.383,24,49.689,24,50c0,0.446-0.038,0.891-0.1,1.335  c-0.01,0.073-0.022,0.146-0.034,0.219c-0.071,0.44-0.165,0.878-0.296,1.312l-3.201,0.64L21.8,51.6  c0.003-0.003,0.003-0.008,0.005-0.011L21.844,51.537z M15.84,59.82c-0.41,0.079-0.815,0.121-1.217,0.149  c-0.11,0.007-0.221,0.014-0.332,0.017c-0.31,0.01-0.617,0.002-0.922-0.017c-0.111-0.007-0.224-0.006-0.335-0.017  c-0.397-0.039-0.79-0.101-1.178-0.188c-0.066-0.014-0.129-0.034-0.194-0.05c-0.361-0.089-0.719-0.195-1.071-0.324  c-0.023-0.008-0.045-0.017-0.068-0.025l2.921-2.434l3.225-0.645L15.84,59.82z M17.429,54.094l-3.645,0.729l-0.51-2.551l-0.17-0.85  l2.958-2.218l3.473,2.083L17.429,54.094z M12,49.75l-2.732-2.049L10.618,45h2.764l1.351,2.701L12,49.75z M7.862,49.147l3.232,2.424  l0.809,4.042l-3.33,2.774c-0.021-0.013-0.043-0.025-0.063-0.038c-0.612-0.403-1.172-0.869-1.673-1.386  c-0.048-0.049-0.092-0.102-0.138-0.152c-0.205-0.22-0.401-0.447-0.585-0.684c-0.043-0.055-0.084-0.112-0.126-0.169  c-0.186-0.251-0.362-0.509-0.523-0.775c-0.025-0.04-0.049-0.08-0.073-0.121c-0.754-1.282-1.224-2.73-1.349-4.245  c-0.001-0.011-0.001-0.021-0.002-0.032L7.862,49.147z M18.056,59.132l0.77-3.278l3.758-0.751  C21.529,56.871,19.95,58.287,18.056,59.132z M23.089,45.854l-2.408,3.788l-3.917-2.35l-1.548-3.095l3.17-3.17  C20.458,42.044,22.126,43.752,23.089,45.854z M7.921,42.078L8.882,44l-1.613,3.225l-3.156,1.352  C4.492,45.939,5.899,43.633,7.921,42.078z"/><path d="M3.917,25.379l24.622,16.834c-0.072,0.182-0.127,0.367-0.185,0.552c-0.004,0.014-0.009,0.027-0.013,0.04  c-0.099,0.322-0.177,0.647-0.231,0.977c-0.008,0.045-0.019,0.09-0.026,0.135C28.033,44.269,28,44.623,28,44.982  c0,0.004,0.001,0.007,0.001,0.011C28.001,44.995,28,44.997,28,45c0,1.813,0.687,3.581,1.987,5.168  c-0.042,0.043-0.08,0.089-0.121,0.133c-0.019,0.021-0.041,0.038-0.06,0.059c-0.005,0.006-0.007,0.014-0.012,0.019  C28.683,51.615,28,53.243,28,55.031c0,1.769,0.668,3.382,1.758,4.612c0.005,0.006,0.006,0.014,0.012,0.02  c0.023,0.026,0.049,0.047,0.072,0.073c0.124,0.135,0.253,0.265,0.387,0.39c0.043,0.04,0.087,0.08,0.131,0.119  c0.138,0.123,0.282,0.239,0.43,0.35c0.042,0.031,0.083,0.063,0.125,0.094c0.158,0.114,0.322,0.22,0.489,0.32  c0.035,0.021,0.07,0.044,0.106,0.064c0.181,0.104,0.368,0.199,0.558,0.287c0.025,0.011,0.049,0.025,0.074,0.036  c0.203,0.091,0.411,0.171,0.624,0.242c0.015,0.005,0.03,0.012,0.045,0.017c0.217,0.071,0.438,0.131,0.664,0.18  c0.012,0.003,0.025,0.007,0.037,0.01c0.216,0.046,0.436,0.081,0.658,0.106c0.022,0.003,0.044,0.008,0.066,0.01  C34.477,61.986,34.721,62,34.969,62c1.248,0,2.418-0.334,3.433-0.912c0.004-0.002,0.007-0.004,0.011-0.006  c0.198-0.113,0.39-0.236,0.576-0.368c0.025-0.018,0.049-0.037,0.074-0.055c0.163-0.119,0.321-0.244,0.473-0.376  c0.036-0.031,0.07-0.064,0.105-0.096c0.14-0.127,0.274-0.258,0.403-0.395c0.016-0.017,0.035-0.032,0.051-0.05  c0.005-0.006,0.007-0.014,0.012-0.02c0.973-1.064,1.624-2.426,1.788-3.935C42.94,55.914,43.981,56,45,56  c1.206,0,2.381-0.084,3.516-0.24l4.526,2.821C53.324,60.513,54.992,62,57,62c2.206,0,4-1.794,4-4s-1.794-4-4-4h-0.682l-0.639-0.453  c0.971-0.509,1.848-1.087,2.626-1.72c0.045-0.027,0.094-0.043,0.136-0.078c1.264-1.055,2.192-2.227,2.788-3.472  c0.005-0.01,0.009-0.021,0.014-0.031c0.146-0.308,0.27-0.621,0.374-0.938c0.02-0.061,0.04-0.122,0.059-0.184  c0.082-0.276,0.148-0.554,0.198-0.835c0.015-0.08,0.033-0.158,0.045-0.238C61.968,45.704,62,45.354,62,45s-0.032-0.704-0.082-1.052  c-0.012-0.08-0.031-0.159-0.045-0.238c-0.05-0.281-0.115-0.559-0.198-0.835c-0.019-0.062-0.039-0.123-0.059-0.184  c-0.103-0.317-0.228-0.63-0.374-0.938c-0.005-0.01-0.009-0.021-0.014-0.031c-0.596-1.245-1.524-2.417-2.788-3.472  c-0.04-0.033-0.087-0.047-0.13-0.073c-1.831-1.493-4.244-2.669-7.019-3.387c0.067-0.026,0.132-0.056,0.198-0.083  c0.076-0.031,0.151-0.063,0.227-0.095c2.46-1.058,4.656-2.693,6.394-4.8c0.002-0.003,0.004-0.005,0.007-0.008  c0.343-0.417,0.674-0.846,0.98-1.299c0.013-0.019,0.018-0.04,0.029-0.06C60.939,25.741,62,22.493,62,19  c0-0.417-0.026-0.856-0.067-1.316c-0.024-0.308-0.057-0.612-0.097-0.915c-0.002-0.013-0.002-0.023-0.004-0.035  c-0.001-0.004-0.003-0.008-0.003-0.012c-0.86-6.379-5.262-11.635-11.164-13.73c-0.01-0.004-0.018-0.011-0.028-0.015  c-0.025-0.009-0.051-0.014-0.076-0.023c-0.378-0.131-0.761-0.247-1.15-0.352c-0.121-0.033-0.242-0.063-0.363-0.094  c-0.339-0.083-0.68-0.16-1.026-0.223c-0.228-0.042-0.456-0.072-0.684-0.105c-0.26-0.036-0.518-0.077-0.781-0.101  C46.039,2.03,45.52,2,45,2c-0.512,0-1.02,0.031-1.524,0.077c-0.169,0.015-0.337,0.036-0.505,0.056  c-0.337,0.041-0.671,0.093-1.003,0.154c-0.185,0.034-0.371,0.063-0.554,0.102c-0.425,0.093-0.846,0.2-1.26,0.325  c-0.254,0.076-0.501,0.166-0.75,0.253c-0.192,0.068-0.383,0.136-0.572,0.21c-0.268,0.105-0.534,0.214-0.795,0.333  c-0.144,0.065-0.285,0.137-0.427,0.206C37.09,3.967,36.587,4.242,36.1,4.544c-0.104,0.064-0.211,0.124-0.314,0.191  c-0.25,0.162-0.491,0.333-0.732,0.508c-0.142,0.103-0.282,0.208-0.421,0.315c-0.227,0.175-0.452,0.352-0.67,0.538  c-0.141,0.121-0.276,0.25-0.413,0.376c-0.352,0.322-0.689,0.657-1.013,1.007c-0.143,0.155-0.288,0.308-0.426,0.468  c-0.174,0.202-0.34,0.41-0.504,0.621c-0.127,0.163-0.25,0.328-0.371,0.496c-0.16,0.222-0.32,0.443-0.47,0.672  c-0.09,0.138-0.172,0.283-0.258,0.424c-0.293,0.478-0.561,0.97-0.806,1.477c-0.049,0.102-0.105,0.2-0.153,0.304  c-0.003,0.007-0.002,0.016-0.005,0.023C28.562,14.11,28,16.488,28,19c0,0.389,0.033,0.77,0.058,1.153  c0,0.003-0.001,0.007-0.001,0.01c0,0.007,0.002,0.013,0.002,0.02c0.037,0.53,0.099,1.051,0.183,1.567  c0.005,0.029,0.008,0.058,0.013,0.086c0.086,0.506,0.194,1.003,0.323,1.493c0.009,0.036,0.018,0.071,0.028,0.107  c0.131,0.484,0.283,0.958,0.455,1.423c0.014,0.037,0.027,0.075,0.041,0.112c0.174,0.462,0.368,0.914,0.58,1.356  c0.017,0.036,0.035,0.073,0.052,0.109c0.216,0.441,0.449,0.87,0.701,1.289c0.019,0.032,0.039,0.064,0.058,0.096  c0.166,0.271,0.328,0.544,0.508,0.805c0.008,0.013,0.012,0.028,0.021,0.041c0.247,0.356,0.51,0.697,0.78,1.031  c0.069,0.084,0.139,0.167,0.209,0.25c0.299,0.355,0.608,0.7,0.933,1.027c0.017,0.017,0.033,0.035,0.05,0.052  c0.342,0.341,0.7,0.661,1.068,0.971c0.085,0.071,0.169,0.142,0.255,0.212c0.363,0.294,0.735,0.575,1.119,0.837  c0.079,0.054,0.162,0.103,0.242,0.156c0.327,0.215,0.662,0.418,1.003,0.61c0.114,0.064,0.226,0.131,0.342,0.193  c0.385,0.205,0.779,0.394,1.18,0.569c0.143,0.063,0.288,0.121,0.433,0.18c0.028,0.011,0.055,0.023,0.083,0.034c0,0,0,0,0,0  c-1.66,0.429-3.198,1.016-4.553,1.743L10.042,17.134c-1.113-0.895-2.507-1.281-3.92-1.086c-1.415,0.194-2.652,0.941-3.482,2.104  c-0.809,1.133-1.121,2.512-0.878,3.883C2.003,23.405,2.769,24.593,3.917,25.379z M37.809,59.097  c-0.094,0.066-0.195,0.119-0.293,0.177c-0.142,0.086-0.287,0.166-0.437,0.238c-0.158,0.072-0.319,0.137-0.484,0.192  c-0.072,0.025-0.146,0.046-0.219,0.068c-0.948,0.268-1.977,0.259-2.924-0.034c-0.032-0.01-0.065-0.019-0.096-0.03  c-0.194-0.065-0.383-0.146-0.568-0.235c-0.106-0.052-0.209-0.109-0.311-0.169c-0.134-0.077-0.268-0.155-0.395-0.246  c-0.025-0.018-0.046-0.04-0.071-0.059c1.687-1.224,4.163-1.212,5.857,0.05C37.846,59.064,37.83,59.083,37.809,59.097z   M34.906,56.062c-1.531,0-3.013,0.52-4.221,1.443C30.261,56.774,30,55.936,30,55.031c0-0.919,0.268-1.769,0.704-2.508  C31.919,53.468,33.418,54,34.969,54c1.549,0,3.046-0.531,4.26-1.473c0.024,0.041,0.051,0.081,0.074,0.124  c0.058,0.105,0.121,0.206,0.172,0.316c0.082,0.179,0.144,0.369,0.205,0.559c0.036,0.111,0.076,0.221,0.104,0.335  c0.048,0.198,0.074,0.403,0.097,0.609c0.021,0.187,0.057,0.369,0.057,0.561c0,0.932-0.274,1.796-0.723,2.542  C37.993,56.607,36.478,56.062,34.906,56.062z M32.078,51.007c0.203-0.146,0.419-0.266,0.637-0.379  c0.028-0.015,0.055-0.031,0.084-0.046c0.157-0.074,0.318-0.137,0.482-0.194c0.078-0.029,0.157-0.055,0.237-0.08  c0.961-0.281,2.005-0.279,2.962,0.014c0.02,0.006,0.04,0.012,0.059,0.018c0.194,0.062,0.382,0.143,0.567,0.229  c0.063,0.03,0.124,0.063,0.186,0.096c0.048,0.026,0.097,0.051,0.144,0.078c0.116,0.065,0.23,0.133,0.34,0.208  c0.039,0.027,0.075,0.06,0.113,0.089c-1.691,1.234-4.159,1.233-5.848-0.004C32.054,51.028,32.065,51.016,32.078,51.007z   M33.032,48.34c-0.008,0.002-0.015,0.006-0.023,0.008c-0.18,0.053-0.355,0.115-0.528,0.182c-0.048,0.018-0.097,0.033-0.144,0.053  c-0.063,0.026-0.125,0.054-0.187,0.081c-0.001,0-0.002,0.001-0.003,0.001c-0.192,0.086-0.381,0.178-0.564,0.28  c-1.037-1.239-1.58-2.593-1.583-3.955c0-0.283,0.027-0.563,0.071-0.84c0.012-0.073,0.028-0.143,0.043-0.214  c0.039-0.197,0.089-0.392,0.149-0.585c0.03-0.096,0.06-0.193,0.095-0.286c0.056-0.152,0.125-0.301,0.193-0.45  c0.037-0.078,0.069-0.16,0.108-0.236c0.01-0.016,0.027-0.026,0.036-0.043c0.16-0.304,0.359-0.614,0.608-0.948  c0.012-0.017,0.016-0.037,0.025-0.055c0.096-0.126,0.195-0.245,0.296-0.362c0.095-0.112,0.211-0.229,0.327-0.348c0,0,0,0,0.001,0  l0.008-0.008c0.067-0.07,0.141-0.131,0.21-0.2C33.369,41.806,34,43.369,34,44.982C34,46.132,33.674,47.26,33.032,48.34z   M41.819,53.783c-0.035-0.194-0.08-0.383-0.131-0.571c-0.004-0.015-0.008-0.031-0.012-0.046c-0.049-0.175-0.105-0.347-0.167-0.516  c-0.011-0.03-0.021-0.06-0.033-0.089c-0.061-0.161-0.128-0.318-0.2-0.473c-0.016-0.034-0.033-0.068-0.049-0.102  c-0.074-0.151-0.151-0.299-0.235-0.444c-0.019-0.032-0.038-0.063-0.057-0.095c-0.088-0.146-0.178-0.289-0.276-0.427  c-0.014-0.019-0.029-0.037-0.042-0.057c-0.147-0.204-0.305-0.398-0.473-0.585c-0.005-0.006-0.007-0.014-0.012-0.019  c-0.019-0.021-0.041-0.039-0.06-0.059c-0.128-0.138-0.26-0.269-0.399-0.396c-0.038-0.035-0.075-0.069-0.114-0.103  c-0.146-0.129-0.298-0.25-0.455-0.366c-0.028-0.021-0.056-0.044-0.084-0.064c-0.023-0.017-0.046-0.034-0.069-0.05  c-0.112-0.079-0.229-0.151-0.346-0.223c-0.064-0.04-0.128-0.08-0.194-0.118c-0.109-0.062-0.221-0.12-0.334-0.177  c-0.08-0.04-0.159-0.079-0.241-0.116c-0.015-0.007-0.03-0.015-0.046-0.022c-0.001,0-0.002-0.001-0.003-0.001  c-0.091-0.04-0.184-0.077-0.277-0.114c-0.094-0.037-0.188-0.071-0.284-0.104c-0.104-0.036-0.208-0.071-0.314-0.101  c-0.11-0.032-0.222-0.059-0.334-0.086c-0.096-0.023-0.192-0.047-0.29-0.066c-0.135-0.026-0.272-0.044-0.41-0.063  c-0.059-0.008-0.117-0.021-0.176-0.027c-0.002,0-0.004-0.001-0.006-0.001c-0.019-0.002-0.039-0.003-0.058-0.005  c-0.091-0.009-0.183-0.011-0.274-0.016C35.772,47.076,36,46.042,36,44.982c0-2.094-0.793-4.092-2.296-5.842  c0.075-0.051,0.141-0.1,0.22-0.153c0.207-0.138,0.414-0.275,0.635-0.404c0.053-0.031,0.098-0.071,0.144-0.11  C37.393,36.945,41.012,36,45,36c4.523,0,8.576,1.213,11.328,3.119C54.804,40.877,54,42.89,54,45s0.804,4.123,2.328,5.881  c-0.837,0.58-1.789,1.097-2.845,1.534c-0.049,0.012-0.099,0.02-0.147,0.039c-1.446,0.589-3.045,1.017-4.753,1.273  c-0.006,0.001-0.011,0.004-0.017,0.005C47.42,53.901,46.231,54,45,54C43.958,54,42.892,53.927,41.819,53.783z M43.386,33.905  c-0.163-0.018-0.322-0.046-0.483-0.069c-0.001,0-0.001,0-0.002,0c-0.37-0.053-0.738-0.117-1.101-0.196  c-0.161-0.035-0.32-0.074-0.479-0.115c-0.033-0.008-0.066-0.017-0.099-0.026c-0.329-0.086-0.654-0.186-0.976-0.294  c-0.123-0.041-0.246-0.08-0.368-0.125c-0.08-0.029-0.161-0.057-0.24-0.088c-0.359-0.138-0.71-0.292-1.056-0.457  c-0.014-0.007-0.029-0.012-0.043-0.019c-0.101-0.048-0.202-0.095-0.302-0.145c-0.168-0.086-0.329-0.183-0.493-0.275  c-0.232-0.129-0.464-0.257-0.689-0.398c-0.252-0.159-0.496-0.33-0.738-0.503c-0.16-0.114-0.317-0.23-0.473-0.351  c-0.255-0.198-0.507-0.4-0.749-0.614c-0.109-0.096-0.213-0.2-0.319-0.3c-0.244-0.229-0.488-0.458-0.716-0.702  c-0.004-0.005-0.008-0.009-0.013-0.014c-0.297-0.319-0.58-0.651-0.849-0.994c-0.005-0.006-0.011-0.012-0.016-0.018  C33.118,28.12,33.063,28.03,33,27.946c0.165-0.36,0.349-0.712,0.551-1.049c0.708-1.188,1.59-2.665,3.188-3.27  c2.137-0.812,4.389,0.46,6.993,1.934c1.063,0.602,2.163,1.224,3.324,1.738c2.698,1.194,5.725,1.789,9.046,1.752  c-0.108,0.119-0.213,0.241-0.325,0.357c-0.125,0.129-0.252,0.255-0.38,0.38c-0.229,0.221-0.463,0.435-0.706,0.641  c-0.137,0.116-0.278,0.228-0.419,0.339c-0.244,0.193-0.492,0.382-0.748,0.56c-0.162,0.112-0.328,0.215-0.494,0.32  c-0.247,0.158-0.495,0.314-0.752,0.458c-0.2,0.111-0.406,0.21-0.611,0.312c-0.235,0.117-0.469,0.238-0.711,0.343  c-0.252,0.109-0.511,0.201-0.769,0.296c-0.209,0.078-0.415,0.162-0.629,0.231c-0.31,0.099-0.627,0.176-0.944,0.254  c-0.175,0.044-0.346,0.098-0.523,0.135c-0.37,0.078-0.747,0.13-1.125,0.18c-0.134,0.018-0.265,0.047-0.401,0.061  C46.049,33.971,45.527,34,45,34C44.457,34,43.919,33.963,43.386,33.905z M59.616,43.005c0.054,0.138,0.097,0.282,0.141,0.426  c0.043,0.146,0.081,0.292,0.112,0.44c0.022,0.103,0.046,0.205,0.062,0.311C59.972,44.452,60,44.724,60,45s-0.028,0.548-0.069,0.818  c-0.016,0.106-0.04,0.208-0.062,0.311c-0.031,0.148-0.069,0.294-0.112,0.44c-0.044,0.144-0.087,0.288-0.141,0.426  c-0.013,0.034-0.03,0.066-0.043,0.1c-0.408,0.99-1.057,1.828-1.725,2.493C56.636,48.192,56,46.621,56,45s0.636-3.192,1.848-4.587  c0.668,0.664,1.317,1.502,1.725,2.493C59.586,42.939,59.603,42.972,59.616,43.005z M53.575,54.508l1.847,1.308  C55.591,55.936,55.793,56,56,56h1c1.103,0,2,0.897,2,2s-0.897,2-2,2s-2-0.897-2-2c0-0.345-0.178-0.666-0.471-0.849l-3.138-1.956  c0.042-0.011,0.08-0.027,0.121-0.038c0.598-0.161,1.176-0.345,1.737-0.547C53.355,54.573,53.47,54.547,53.575,54.508z   M57.679,26.979c-3.655,0.256-6.958-0.245-9.813-1.509c-1.072-0.475-2.127-1.072-3.149-1.65c-2.786-1.576-5.667-3.209-8.687-2.063  c-2.25,0.852-3.421,2.815-4.197,4.115c-0.026,0.043-0.047,0.09-0.073,0.134c-0.859-1.618-1.435-3.412-1.649-5.318  c4.361-2.114,8.993-3.479,13.777-4.062c5.377-0.654,10.769-0.305,16.039,1.035c0.005,0.05,0.007,0.095,0.011,0.144  C59.971,18.201,60,18.597,60,19C60,21.934,59.141,24.665,57.679,26.979z M59.578,15.528c-5.243-1.23-10.593-1.537-15.929-0.887  c-4.72,0.574-9.294,1.883-13.624,3.884c0.055-1.757,0.411-3.437,1.023-4.993c0.938,0.206,1.851,0.312,2.735,0.312  c0.999,0,1.961-0.132,2.879-0.396c1.936-0.556,3.148-1.539,4.683-2.782c0.823-0.667,1.757-1.423,2.994-2.28  c1.878-1.3,3.901-2.433,6.011-3.383C54.927,6.759,58.424,10.688,59.578,15.528z M32.448,10.812c0.131-0.201,0.272-0.394,0.413-0.587  c0.101-0.139,0.203-0.277,0.308-0.412c0.144-0.185,0.289-0.369,0.441-0.547c0.121-0.141,0.248-0.275,0.374-0.412  c0.263-0.286,0.536-0.561,0.82-0.824c0.118-0.11,0.236-0.219,0.358-0.326c0.186-0.162,0.374-0.321,0.568-0.474  c0.107-0.084,0.218-0.163,0.327-0.245c0.361-0.269,0.733-0.522,1.116-0.758c0.114-0.07,0.226-0.141,0.342-0.208  c0.222-0.129,0.448-0.252,0.676-0.369c0.128-0.065,0.258-0.125,0.388-0.187c0.366-0.174,0.739-0.333,1.118-0.478  c0.179-0.068,0.357-0.137,0.539-0.198c0.202-0.068,0.407-0.132,0.613-0.191c0.264-0.076,0.53-0.144,0.8-0.206  c0.183-0.042,0.367-0.084,0.552-0.119c0.352-0.067,0.707-0.122,1.067-0.163c0.131-0.015,0.263-0.029,0.395-0.04  C44.105,4.029,44.549,4,45,4c0.456,0,0.905,0.028,1.35,0.068c0.221,0.021,0.441,0.052,0.661,0.083  c0.128,0.017,0.255,0.038,0.382,0.058C45.939,4.97,44.536,5.817,43.2,6.742c-1.299,0.899-2.264,1.681-3.115,2.37  c-1.464,1.186-2.431,1.97-3.977,2.414c-1.3,0.373-2.677,0.424-4.183,0.147c0.16-0.284,0.329-0.562,0.505-0.833  C32.437,10.831,32.442,10.821,32.448,10.812z M4.267,19.315c0.507-0.71,1.263-1.167,2.127-1.285C6.54,18.009,6.686,18,6.831,18  c0.71,0,1.393,0.239,1.958,0.693l23.563,18.943c-0.205,0.146-0.402,0.296-0.593,0.45c-0.007,0.005-0.014,0.01-0.021,0.016  l-0.003,0.002c0,0,0,0,0,0l-0.108,0.09c-0.021,0.015-0.047,0.021-0.067,0.038c-0.493,0.411-0.926,0.844-1.319,1.288  c-0.019,0.021-0.041,0.042-0.06,0.064c-0.214,0.167-0.381,0.385-0.516,0.648c-0.054,0.072-0.112,0.143-0.163,0.216L5.047,23.729  c-0.701-0.48-1.168-1.205-1.316-2.042C3.582,20.849,3.773,20.007,4.267,19.315z"/><path d="M48,43.196V45h2v-1.442c0.535,0.115,1.106,0.246,1.754,0.411l0.492-1.938c-0.835-0.212-1.574-0.381-2.247-0.517V39h-2v2.18  c-0.714-0.091-1.363-0.138-2-0.161V39h-2v2.018c-0.736,0.024-1.396,0.074-2,0.144V39h-2v2.491c-0.67,0.141-1.302,0.299-1.94,0.462  l-0.306,0.078l0.492,1.938l0.308-0.078c0.49-0.125,0.963-0.245,1.446-0.355V45h2v-1.822c0.601-0.077,1.254-0.134,2-0.16V45h2v-1.98  C46.635,43.044,47.279,43.096,48,43.196z"/><text x="0" y="79" fill="#000000" font-size="5px" font-weight="bold" font-family="'Helvetica Neue', Helvetica, Arial-Unicode, Arial, Sans-serif">Created by Becris</text><text x="0" y="84" fill="#000000" font-size="5px" font-weight="bold" font-family="'Helvetica Neue', Helvetica, Arial-Unicode, Arial, Sans-serif">from the Noun Project</text></svg>