<svg xmlns="http://www.w3.org/2000/svg" xmlns:xlink="http://www.w3.org/1999/xlink" version="1.1" x="0px" y="0px" viewBox="0 0 100 125" style="enable-background:new 0 0 100 100;" xml:space="preserve"><g><path d="M64.25,34.25h-28.5c-0.829,0-1.5,0.672-1.5,1.5v28.5c0,0.828,0.671,1.5,1.5,1.5h28.5c0.829,0,1.5-0.672,1.5-1.5v-28.5   C65.75,34.922,65.079,34.25,64.25,34.25z M62.75,62.75h-25.5v-25.5h25.5V62.75z"/><path d="M78.25,65.75c0.829,0,1.5-0.672,1.5-1.5v-3.17h7.292v-3H79.75v-3.387h7.292v-3H79.75v-3.387h7.292v-3H79.75V41.92h7.292v-3   H79.75v-3.17c0-0.828-0.671-1.5-1.5-1.5h-3v-4.688c0-2.653-2.159-4.813-4.813-4.813H65.75v-3c0-0.828-0.671-1.5-1.5-1.5h-3.17   v-7.292h-3v7.292h-3.387v-7.292h-3v7.292h-3.387v-7.292h-3v7.292H41.92v-7.292h-3v7.292h-3.17c-0.829,0-1.5,0.672-1.5,1.5v3h-4.688   c-2.654,0-4.813,2.159-4.813,4.813v4.688h-3c-0.829,0-1.5,0.672-1.5,1.5v3.17h-7.292v3h7.292v3.387h-7.292v3h7.292v3.387h-7.292v3   h7.292v3.387h-7.292v3h7.292v3.17c0,0.828,0.671,1.5,1.5,1.5h3v4.688c0,2.653,2.159,4.813,4.813,4.813h4.688v3   c0,0.828,0.671,1.5,1.5,1.5h3.17v7.292h3V79.75h3.387v7.292h3V79.75h3.387v7.292h3V79.75h3.387v7.292h3V79.75h3.17   c0.829,0,1.5-0.672,1.5-1.5v-3h4.688c2.654,0,4.813-2.159,4.813-4.813V65.75H78.25z M76.75,37.25v25.5h-1.5v-25.5H76.75z    M37.25,23.25h25.5v1.5h-25.5V23.25z M23.25,62.75v-25.5h1.5v25.5H23.25z M62.75,76.75h-25.5v-1.5h25.5V76.75z M71.25,70.438   c0,0.448-0.364,0.813-0.813,0.813H29.563c-0.448,0-0.813-0.364-0.813-0.813V29.563c0-0.448,0.364-0.813,0.813-0.813h40.875   c0.448,0,0.813,0.364,0.813,0.813V70.438z"/><path d="M86.167,4.333H13.833c-5.238,0-9.5,4.262-9.5,9.5v72.334c0,5.238,4.262,9.5,9.5,9.5h72.333c5.238,0,9.5-4.262,9.5-9.5   V13.833C95.667,8.595,91.405,4.333,86.167,4.333z M91.667,86.167c0,3.032-2.467,5.5-5.5,5.5H13.833c-3.033,0-5.5-2.468-5.5-5.5   V13.833c0-3.032,2.467-5.5,5.5-5.5h72.333c3.033,0,5.5,2.468,5.5,5.5V86.167z"/><path d="M17.666,23.744c3.251,0,5.896-2.645,5.896-5.896s-2.645-5.896-5.896-5.896s-5.896,2.646-5.896,5.896   S14.415,23.744,17.666,23.744z M17.666,14.952c1.597,0,2.896,1.3,2.896,2.896s-1.299,2.896-2.896,2.896s-2.896-1.299-2.896-2.896   S16.069,14.952,17.666,14.952z"/><path d="M82.439,11.952c-3.251,0-5.896,2.646-5.896,5.896s2.645,5.896,5.896,5.896s5.896-2.645,5.896-5.896   S85.69,11.952,82.439,11.952z M82.439,20.744c-1.597,0-2.896-1.299-2.896-2.896s1.299-2.896,2.896-2.896s2.896,1.3,2.896,2.896   S84.036,20.744,82.439,20.744z"/><path d="M17.666,76.75c-3.251,0-5.896,2.645-5.896,5.896s2.645,5.896,5.896,5.896s5.896-2.646,5.896-5.896   S20.917,76.75,17.666,76.75z M17.666,85.542c-1.597,0-2.896-1.3-2.896-2.896s1.299-2.896,2.896-2.896s2.896,1.299,2.896,2.896   S19.263,85.542,17.666,85.542z"/><path d="M82.439,76.75c-3.251,0-5.896,2.645-5.896,5.896s2.645,5.896,5.896,5.896s5.896-2.646,5.896-5.896   S85.69,76.75,82.439,76.75z M82.439,85.542c-1.597,0-2.896-1.3-2.896-2.896s1.299-2.896,2.896-2.896s2.896,1.299,2.896,2.896   S84.036,85.542,82.439,85.542z"/></g><text x="0" y="115" fill="#000000" font-size="5px" font-weight="bold" font-family="'Helvetica Neue', Helvetica, Arial-Unicode, Arial, Sans-serif">Created by Maxim Kulikov</text><text x="0" y="120" fill="#000000" font-size="5px" font-weight="bold" font-family="'Helvetica Neue', Helvetica, Arial-Unicode, Arial, Sans-serif">from the Noun Project</text></svg>