<svg xmlns="http://www.w3.org/2000/svg" xmlns:xlink="http://www.w3.org/1999/xlink" version="1.1" x="0px" y="0px" viewBox="0 0 100 125" style="enable-background:new 0 0 100 100;" xml:space="preserve"><title>icons saved for noun</title><path d="M97.7,14.8v62.5c0,1-0.8,1.8-1.7,1.8h-4.7v7.8h-4.1l-5.7-7.8H19L13.2,87H9.2v-7.8H4.5c-1,0-1.8-0.8-1.8-1.8l0,0V14.8  c0-1,0.8-1.8,1.7-1.8c0,0,0,0,0.1,0H96C97,13,97.8,13.9,97.7,14.8C97.7,14.8,97.7,14.8,97.7,14.8z M78.9,18.5H9.1v55.3h69.7V18.5z   M93.3,25.9c0-2.9-2.3-5.2-5.2-5.2c-2.9,0-5.2,2.3-5.2,5.2c0,2.9,2.3,5.2,5.2,5.2C91,31.1,93.3,28.8,93.3,25.9 M92.3,39.6  c0-2.3-1.9-4.2-4.2-4.2S84,37.3,84,39.6c0,2.3,1.9,4.2,4.2,4.2C90.4,43.8,92.3,41.9,92.3,39.6 M94.3,68.1H82.7v1.4h11.6L94.3,68.1  L94.3,68.1z M94.3,63H82.7v1.4h11.6L94.3,63L94.3,63z M94.3,58.1H82.7v1.4h11.6L94.3,58.1L94.3,58.1z M94.3,53.3H82.7v1.4h11.6  L94.3,53.3L94.3,53.3z M38,38.3c-2.2-2.2-2.2-5.7,0-7.9c0,0,0,0,0,0l-1.3-1.3c-2.9,2.9-2.9,7.6,0,10.4c0,0,0,0,0,0L38,38.3z   M49.5,39.6c2.9-2.9,2.9-7.6,0-10.4c0,0,0,0,0,0l-1.3,1.3c2.2,2.2,2.2,5.7,0,7.9c0,0,0,0,0,0L49.5,39.6z M30.3,34.4  c0-2.4,0.9-4.8,2.7-6.5l-1.3-1.3c-4.3,4.3-4.3,11.2,0,15.5c0,0,0,0,0,0l1.3-1.3C31.3,39.1,30.3,36.8,30.3,34.4z M28.1,25.4l-1.3-1.3  c-5.7,5.7-5.7,14.9,0,20.5c0,0,0,0,0,0l1.3-1.3C23.1,38.4,23.1,30.4,28.1,25.4C28.1,25.4,28.1,25.4,28.1,25.4L28.1,25.4z M59.3,24.1  l-1.3,1.3c5,5,5,13,0,18l1.3,1.3C65,39,65,29.8,59.3,24.1C59.3,24.1,59.3,24.1,59.3,24.1L59.3,24.1z M44,37.1  c1.5-0.5,2.4-2.1,1.9-3.7c-0.5-1.5-2.1-2.4-3.7-1.9s-2.4,2.1-1.9,3.7c0.3,0.9,1,1.6,1.9,1.9v2.4l-10,29.6H34l2-5.9h14.1V63l2.1,6.1  H54L44,39.5C44,39.5,44,37.1,44,37.1z M43.1,42.4l3.7,10.7h-7.3L43.1,42.4z M36.5,61.7l2.3-6.9h8.4l2.3,6.9H36.5z M53.1,27.9  c3.6,3.6,3.6,9.4,0,13c0,0,0,0,0,0l1.3,1.3c4.3-4.3,4.3-11.2,0-15.5L53.1,27.9z"/><text x="0" y="115" fill="#000000" font-size="5px" font-weight="bold" font-family="'Helvetica Neue', Helvetica, Arial-Unicode, Arial, Sans-serif">Created by Robert A. Di Ieso</text><text x="0" y="120" fill="#000000" font-size="5px" font-weight="bold" font-family="'Helvetica Neue', Helvetica, Arial-Unicode, Arial, Sans-serif">from the Noun Project</text></svg>